<svg xmlns="http://www.w3.org/2000/svg" xmlns:xlink="http://www.w3.org/1999/xlink" version="1.1" width="1181.1027pt" height="1181.1027pt" viewBox="0 0 1181.1027 1181.1027">
<defs>
<clipPath id="clip_1">
<path transform="matrix(2.7777777,0,0,-2.7777777,0,1181.1027)" d="M0 0H425.197V425.197H0Z"/>
</clipPath>
<clipPath id="clip_2">
<path transform="matrix(2.7777777,0,0,-2.7777777,0,1181.1027)" d="M0 0H425.197V425.197H0Z"/>
</clipPath>
<path id="font_3_21" d="M.24398804 .2680664C.25898744 .30207826 .29100038 .43411256 .30299378 .48612977 .29599 .42611695 .2889862 .30107118 .2889862 .25706483V0C.40299989 0 .40098573 0 .40098573 .020004273V.7001953C.29299928 .7001953 .2919922 .7001953 .2809906 .67318728L.18499756 .42910768C.17599488 .40411378 .147995 .29408265 .1309967 .23205567 .13598633 .29408265 .14299011 .3961029 .14299011 .43711854V.7001953C.0289917 .7001953 .0309906 .7001953 .0309906 .68019106V0C.13999939 0 .13798523 0 .14898682 .026992798L.24398804 .2680664Z"/>
<path id="font_3_20" d="M.35099793 .7001953C.23699951 .7001953 .23899842 .7001953 .23899842 .68019106V.42523194H.14299011V.7001953C.0289917 .7001953 .0309906 .7001953 .0309906 .68019106V0C.14498902 0 .14299011 0 .14299011 .020004273V.3232422H.23899842V0C.35299684 0 .35099793 0 .35099793 .020004273V.7001953Z"/>
<path id="font_3_19" d="M.019989014 .35409547C.019989014 .05819702 .068984989-.0087890629 .19999695-.0087890629 .33099366-.0087890629 .3889923 .07720947 .3889923 .35809327 .3889923 .63397219 .34098817 .7089844 .21099854 .7089844 .08198547 .7089844 .019989014 .62597659 .019989014 .35409547M.147995 .32910157C.147995 .52500918 .16099549 .5939789 .20698548 .5939789 .26098634 .5939789 .2659912 .52801516 .2659912 .35409547 .2659912 .1771698 .25498963 .10720825 .20599365 .10720825 .15499878 .10720825 .147995 .173172 .147995 .32910157Z"/>
<path id="font_3_18" d="M.02999878 0H.16099549C.29599 0 .34799195 .10600281 .34799195 .23803711 .34799195 .35507203 .28199769 .37806703 .23298645 .3830719 .2769928 .3890686 .32499696 .44108583 .32499696 .54315188 .32499696 .67318728 .23999024 .7001953 .1559906 .7001953H.057998659C.035995485 .7001953 .02999878 .6931915 .02999878 .68019106V0M.14399719 .6021881H.16699219C.18499756 .6021881 .20098877 .58917239 .20098877 .5191345 .20098877 .46209718 .18699646 .42407228 .16299439 .42407228H.14399719V.6021881M.14399719 .33007813H.1659851C.19699097 .33007813 .21398926 .31806947 .21398926 .2280426 .21398926 .14601135 .19499207 .09700012 .1639862 .09700012H.14399719V.33007813Z"/>
<path id="font_3_17" d="M.2669983 .6981354C.25299073 .70114138 .23298645 .70214846 .21398926 .70214846 .18798828 .70214846 .17199707 .6961365 .16899109 .6811371L.0019989014 .0020446778C.027999878-.0009613037 .057998659-.001953125 .07299805-.001953125 .117996219-.001953125 .12098694 .005050659 .12399292 .019058228L.15299988 .15917969H.28599549L.31900025 .000045776369C.34799195-.001953125 .36898805-.001953125 .38398744-.001953125 .42900086-.001953125 .43699647 .005050659 .43399049 .018051148L.2669983 .6981354M.17399597 .2601776 .19299317 .35316468C.20399475 .40615846 .21299744 .4791565 .21998596 .5421448 .22599793 .4791565 .23498535 .40615846 .24598694 .35316468L.2649994 .2601776H.17399597Z"/>
<path id="font_3_16" d="M.0309906 0H.28399659C.29100038-.06100464 .30299378-.10501099 .31698609-.14700318 .37199403-.14700318 .394989-.14700318 .394989-.11500549V.10499573H.34799195V.7001953C.23799134 .7001953 .23599243 .7001953 .23599243 .6801758V.10499573H.14299011V.7001953C.03199768 .7001953 .0309906 .7001953 .0309906 .6801758V0Z"/>
<path id="font_3_15" d="M.02999878 0H.1639862C.2649994 0 .33999635 .07199097 .33999635 .2300415 .33999635 .3680725 .29100038 .43507386 .17098999 .43507386H.14399719V.7001953C.02999878 .7001953 .02999878 .7001953 .02999878 .68019106V0M.37098695 0C.48399354 0 .4850006 0 .4850006 .019989014 .4850006 .019989014 .48298646 .17301941 .48298646 .35006715 .48298646 .49909974 .4850006 .7001953 .4850006 .7001953 .37298585 .7001953 .37098695 .7001953 .37098695 .6511841 .37098695 .6511841 .37298585 .49909974 .37298585 .35006715 .37298585 .17301941 .37098695 0 .37098695 0M.14399719 .32806397C.14399719 .32806397 .1519928 .33007813 .16499329 .33007813 .19099427 .33007813 .20698548 .31106568 .20698548 .2340393 .20698548 .14601135 .18899536 .09700012 .16299439 .09700012 .15098572 .09700012 .14399719 .09899902 .14399719 .09899902V.32806397Z"/>
<path id="font_3_14" d="M.14199829 .328125H.24398804C.2630005 .328125 .2630005 .3461151 .2630005 .43011476H.14199829V.6001892H.269989C.2899933 .6001892 .2899933 .6101837 .2899933 .7001953H.049987794C.0309906 .7001953 .02999878 .68019106 .02999878 .68019106V0H.2630005C.2829895 0 .2829895 .005996704 .2829895 .099990848H.14199829V.328125Z"/>
<path id="font_3_1" d="M0 0Z"/>
<path id="font_3_13" d="M.21998596 .71484377C.12998963 .71484377 .019989014 .65483096 .019989014 .32711793 .019989014 .047348024 .07398987-.014663696 .18699646-.014663696 .2630005-.014663696 .30899049 .01234436 .30899049 .05934143 .30899049 .083343509 .3019867 .1083374 .2939911 .1253357 .2749939 .11534119 .24699402 .11035156 .21598816 .11035156 .1599884 .11035156 .13798523 .16229248 .13798523 .33610536 .13798523 .55389407 .18998719 .60583499 .24699402 .60583499 .2689972 .60583499 .2869873 .59783938 .29899598 .5888519 .30699159 .60583499 .31498719 .62882998 .31498719 .655838 .31498719 .6858368 .30499269 .71484377 .21998596 .71484377Z"/>
<path id="font_3_12" d="M.147995 .9273834C.10598755 .91038516 .09399414 .892395 .09399414 .86439517 .09399414 .8083954 .1599884 .75239565 .22299195 .75239565 .29699708 .75239565 .34199525 .7973938 .36698915 .86538699 .3600006 .9013977 .31498719 .944397 .2939911 .91238406 .27999879 .8883972 .2630005 .85839846 .22399903 .85839846 .18499756 .85839846 .15899658 .89938357 .147995 .9273834M.24398804 .2680664C.25898744 .30207826 .29100038 .43411256 .30299378 .48612977 .29599 .42611695 .2889862 .30107118 .2889862 .25706483V0C.40299989 0 .40098573 0 .40098573 .020004273V.7001953C.29299928 .7001953 .2919922 .7001953 .2809906 .67318728L.18499756 .42910768C.17599488 .40411378 .147995 .29408265 .1309967 .23205567 .13598633 .29408265 .14299011 .3961029 .14299011 .43711854V.7001953C.0289917 .7001953 .0309906 .7001953 .0309906 .68019106V0C.13999939 0 .13798523 0 .14898682 .026992798L.24398804 .2680664Z"/>
<path id="font_3_11" d="M.2649994 .45211793C.24699402 .39309693 .24099732 .35308839 .24099732 .35308839 .24099732 .35308839 .23399353 .3921051 .21398926 .45411683L.1349945 .7001953H.049987794C.038986207 .7001953 .02999878 .7001953 .02999878 .68019106V0C.13398743 0 .14099121 0 .14099121 .020004273L.13798523 .19104004C.13598633 .35508729 .10899353 .48913575 .10899353 .48913575L.11299133 .49113465C.12998963 .42311097 .1519928 .335083 .16099549 .30708314L.20799256 .16703797H.2539978C.2579956 .16703797 .2630005 .16804505 .2649994 .17404175L.31298829 .30708314C.32299806 .3370819 .34599305 .42311097 .36299134 .49113465L.3659973 .48913575C.3659973 .48913575 .34098817 .35209657 .33699037 .19004822L.33198548 0C.44699098 0 .44699098 0 .44699098 .020004273V.7001953H.35299684C.34098817 .7001953 .33799745 .6951904 .33299256 .68019106L.2649994 .45211793Z"/>
<path id="font_3_10" d="M.32499696 .7001953C.21598816 .7001953 .21398926 .7001953 .21398926 .68019106V.3712921C.20098877 .3652954 .18699646 .3623047 .17199707 .3623047 .1289978 .3623047 .12098694 .4052887 .12098694 .4582672V.7001953C.011993408 .7001953 .010986328 .7001953 .010986328 .68019106V.4442749C.010986328 .32130433 .057998659 .26029969 .14498902 .26029969 .16799927 .26029969 .19099427 .26229859 .21398926 .2682953V0C.32398988 0 .32499696 0 .32499696 .020019532V.7001953Z"/>
<path id="font_3_9" d="M.14199829 .41409303V.7001953C.027999878 .7001953 .027999878 .7001953 .027999878 .68019106V0C.14199829 0 .14199829 0 .14199829 .020004273V.32807923C.15299988 .3230896 .16299439 .31608583 .17199707 .30607606 .22898865 .24203491 .23799134 .1230011 .23799134 .0009765625 .2659912-.0009613037 .29299928-.001953125 .31799317-.001953125 .35798646-.001953125 .36499024 .003036499 .36499024 .02104187 .36499024 .19807434 .32998658 .33309938 .25698854 .4011078L.37098695 .67315676C.3789978 .693161 .36299134 .7011719 .32299806 .7011719 .3039856 .7011719 .27799989 .699173 .25099183 .693161L.14199829 .41409303Z"/>
<path id="font_3_8" d="M.12399292 0C.14199829 0 .14199829 .020004273 .14199829 .020004273V.6051941H.28799439C.30799867 .6051941 .30799867 .6101837 .30799867 .7001953H.049987794C.0309906 .7001953 .02999878 .68019106 .02999878 .68019106V0H.12399292Z"/>
<path id="font_3_7" d="M.41999818 .7001953V.020187378C.41999818 .00018310547 .42199708 .00018310547 .30799867 .00018310547V.5951843H.24499512C.22200012 .16618347 .20999146-.0048065187 .07798767-.0048065187 .04598999-.0048065187-.0010070801 .0071868898-.0010070801 .033187868-.0010070801 .061187746 .005996704 .09118652 .01499939 .110183719 .026992798 .10317993 .04798889 .10118103 .05899048 .10118103 .117996219 .10118103 .1309967 .3811798 .13598633 .68019106 .13598633 .7001953 .13398743 .7001953 .24798584 .7001953H.41999818Z"/>
<path id="font_3_2" d="M.21398926 .23406983C.23399353 .23406983 .23399353 .2640686 .23399353 .33007813H.049987794C.02999878 .33007813 .02999878 .3000641 .02999878 .23406983H.21398926Z"/>
<path id="font_3_6" d="M.33299256 .061203004C.47698976 .08518982 .54100039 .20614624 .54100039 .35708619 .54100039 .5110321 .47999574 .62098696 .33299256 .64497378V.70996096C.22099304 .70996096 .21998596 .70996096 .21998596 .66096499V.64297488C.07699585 .61698916 .011993408 .50102236 .011993408 .3540802 .011993408 .18815613 .068984989 .076187137 .22099304 .0572052V-.009765625C.33399964-.009765625 .33299256-.009765625 .33299256 .010223389V.061203004M.33198548 .5390167C.40098573 .5170288 .41999818 .44404603 .41999818 .35508729 .41999818 .26911927 .39698792 .19215393 .33198548 .16815186V.5390167M.22099304 .16415406C.1519928 .18515015 .1289978 .25811769 .1289978 .3420868 .1289978 .4330597 .1559906 .513031 .22099304 .5370178V.16415406Z"/>
<path id="font_3_5" d="M.06098938 .3161316C.1309967 .3151245 .19198609 .3031311 .19198609 .22821045 .19198609 .13529969 .147995 .10432434 .11199951 .10432434 .07998657 .10432434 .054992677 .11930847 .0309906 .14428711 .021987915 .12030029 .010986328 .08732605 .010986328 .061325075 .010986328 .021316529 .054992677-.013671875 .12098694-.013671875 .21598816-.013671875 .31098939 .049316408 .31098939 .23120117 .31098939 .32112123 .2659912 .35908509 .23199463 .3730774 .22499085 .37606813 .21499634 .37806703 .20199585 .37806703 .22299195 .381073 .22999573 .38905335 .23599243 .39305116 .2639923 .41203309 .29599 .45500184 .29599 .5539093 .29599 .65486147 .23799134 .7138672 .13999939 .7138672 .04699707 .7138672 .009994507 .6728668 .009994507 .65185549 .009994507 .6258545 .018997193 .5998688 .03199768 .57588198 .052993776 .5938721 .08198547 .6068573 .116989139 .6068573 .15098572 .6068573 .17799378 .5868683 .17799378 .5279236 .17799378 .4220276 .12399292 .41403199 .06098938 .40603639V.3161316Z"/>
<path id="font_3_4" d="M.02999878 .7001953C.015991211 .7001953 .009994507 .69418337 .009994507 .68019106V.5961914H.13198853V0C.24198914 0 .24398804 0 .24398804 .020004273V.5961914H.34999085C.3639984 .5961914 .36999513 .6001892 .36999513 .6161804V.7001953H.02999878Z"/>
<path id="font_3_3" d="M.28599549 .37309266 .39698792 .7001953C.2829895 .7001953 .2829895 .7001953 .27799989 .68218997L.2519989 .59516909C.23999024 .55615237 .23098755 .5141449 .22399903 .48112489 .21798706 .5131378 .20799256 .55514529 .19699097 .59516909L.16799927 .7001953C.036987306 .7001953 .027999878 .7001953 .033996583 .68118289L.14199829 .35910035 .0069885256 0H.10398865C.115997318 0 .12098694 .0029907227 .1269989 .01399231L.16499329 .11602783C.17999268 .15603638 .19299317 .20004273 .20199585 .23506165 .21099854 .20004273 .22299195 .15603638 .23599243 .11602783L.27398683 0H.397995C.4119873 0 .4139862 .005996704 .40899659 .015991211L.28599549 .37309266Z"/>
</defs>
<g clip-path="url(#clip_1)">
<path transform="matrix(2.7777777,0,0,-2.7777777,0,1181.1027)" d="M58.094 377.018H157.405V277.779H58.094ZM137.191 349.516V362.563H78.282V349.584H79.874C86.155 349.584 92.435 349.584 98.716 349.583 100.44 349.583 100.442 349.58 100.442 347.813 100.443 329.911 100.443 312.009 100.443 294.107V292.292H114.977V349.516Z" fill="#0033ff"/>
<path transform="matrix(2.7777777,0,0,-2.7777777,0,1181.1027)" d="M280.802 377.095H380.159V277.801H280.802ZM315.548 292.27V349.48H345.448V347.6C345.448 329.654 345.46 311.706 345.421 293.759 345.418 292.538 345.727 292.146 346.977 292.18 350.136 292.267 353.3 292.209 356.462 292.209H359.993C360.024 292.815 360.068 293.272 360.068 293.73 360.071 316.164 360.061 338.598 360.097 361.031 360.099 362.296 359.811 362.698 358.473 362.694 339.843 362.648 321.212 362.663 302.581 362.663H301.066V292.27Z" fill="#0033ff"/>
<path transform="matrix(2.7777777,0,0,-2.7777777,0,1181.1027)" d="M169.415 377.035H268.81V277.781H169.415ZM239.291 339.881C239.378 339.851 239.465 339.822 239.551 339.792V292.311H253.884C253.912 292.745 253.952 293.08 253.952 293.414 253.955 316.061 253.947 338.708 253.978 361.354 253.98 362.472 253.585 362.696 252.572 362.682 248.813 362.632 245.051 362.613 241.293 362.691 240.053 362.717 239.293 362.359 238.567 361.31 232.444 352.462 226.254 343.66 220.082 334.845 219.802 334.445 219.506 334.057 219.164 333.593 218.849 334.023 218.618 334.326 218.4 334.637 212.13 343.593 205.852 352.543 199.607 361.515 199.041 362.329 198.457 362.719 197.422 362.689 194.775 362.611 192.124 362.663 189.475 362.663H184.434V292.294H198.93V340.151C199.345 339.614 199.555 339.354 199.751 339.084 204.683 332.32 209.625 325.564 214.529 318.78 215.111 317.974 215.721 317.587 216.744 317.634 218.535 317.716 220.334 317.706 222.126 317.637 223.048 317.601 223.598 317.938 224.123 318.678 228.668 325.088 233.25 331.472 237.823 337.862 238.307 338.538 238.802 339.208 239.291 339.881" fill="#0033ff"/>
<path transform="matrix(2.7777777,0,0,-2.7777777,992.59219,454.0897)" d="M0 0C1.412 .358 2.448 .234 3.366-1.078 5.641-4.33 8.079-7.467 10.456-10.647 10.729-11.013 11.026-11.361 11.392-11.816 11.728-11.41 12.008-11.1 12.257-10.767 14.662-7.554 17.061-4.336 19.464-1.122 20.552 .334 20.932 .453 22.876-.05V-24.461H20.465V-4.178C20.368-4.145 20.27-4.112 20.173-4.078 19.889-4.417 19.588-4.744 19.323-5.097 17.17-7.965 15.028-10.842 12.872-13.707 11.91-14.985 10.917-14.96 9.936-13.663 7.721-10.735 5.507-7.805 3.289-4.879 3.092-4.619 2.865-4.383 2.386-3.827V-24.49H0Z" fill="#0033ff"/>
<path transform="matrix(2.7777777,0,0,-2.7777777,492.3253,522.1158)" d="M0 0H-2.368V20.257C-2.482 20.297-2.596 20.337-2.71 20.377-2.987 20.039-3.276 19.71-3.539 19.361-5.694 16.493-7.844 13.621-9.997 10.752-10.908 9.538-11.917 9.542-12.852 10.775-15.018 13.634-17.177 16.498-19.343 19.357-19.609 19.708-19.897 20.042-20.476 20.272V.02H-22.931V24.496C-21.474 24.851-20.366 24.72-19.392 23.317-17.102 20.023-14.628 16.856-12.226 13.64-11.999 13.336-11.749 13.05-11.406 12.628-9.716 14.88-8.085 17.048-6.459 19.221-5.308 20.76-4.113 22.269-3.035 23.858-2.317 24.916-1.346 24.711-.41 24.535-.208 24.497-.019 23.778-.018 23.372 .007 16.921 0 10.47 0 4.019Z" fill="#0033ff"/>
<path transform="matrix(2.7777777,0,0,-2.7777777,884.09719,487.9608)" d="M0 0C.006 6.495 3.861 11.34 9.999 12.568 17.694 14.108 24.748 8.313 24.84 .476 24.905-5.149 22.75-9.557 17.528-11.783 8.647-15.568-.293-9.328 0 0M12.317-10.463C18.007-10.476 22.311-6.028 22.348-.095 22.385 5.771 17.98 10.47 12.436 10.477 6.853 10.485 2.502 5.88 2.5-.039 2.497-5.96 6.727-10.451 12.317-10.463" fill="#0033ff"/>
<path transform="matrix(2.7777777,0,0,-2.7777777,757.1619,453.88166)" d="M0 0V-24.525H-2.402V-2.329H-16.718V-24.545H-19.219C-19.249-24.07-19.304-23.611-19.305-23.152-19.31-15.93-19.282-8.708-19.334-1.486-19.343-.273-19.033 .132-17.769 .117-12.343 .051-6.916 .091-1.489 .085-1.028 .085-.567 .034 0 0" fill="#0033ff"/>
</g>
<path transform="matrix(2.7777777,0,0,-2.7777777,298.2886,453.89216)" d="M0 0V-2.152H-14.226V-10.236H-2.611V-12.508H-14.235V-22.365H.522V-24.56H-16.718V0Z" fill="#0033ff"/>
<g clip-path="url(#clip_2)">
<path transform="matrix(2.7777777,0,0,-2.7777777,582.5522,516.08859)" d="M0 0V-2.139H-17.254C-17.283-1.764-17.341-1.357-17.341-.95-17.347 6.439-17.338 13.828-17.355 21.218-17.357 21.995-17.297 22.506-16.293 22.498-11.338 22.462-6.384 22.484-1.429 22.475-1.141 22.475-.854 22.387-.524 22.333V20.206H-14.774V12.13H-3.133V9.902H-14.74V0Z" fill="#0033ff"/>
<path transform="matrix(2.7777777,0,0,-2.7777777,806.2239,492.09245)" d="M0 0V-10.799H-2.395V13.626C-2.252 13.686-2.102 13.804-1.953 13.803 1.932 13.771 5.827 13.894 9.697 13.637 13.537 13.382 15.766 10.62 15.717 6.719 15.672 3.105 13.211 .443 9.496 .193 6.901 .018 4.291 .055 1.687 .001 1.184-.009 .681 0 0 0M.079 2.437C.399 2.406 .567 2.375 .735 2.375 3.337 2.371 5.939 2.332 8.54 2.382 11.387 2.437 13.241 4.227 13.279 6.851 13.317 9.543 11.643 11.337 8.728 11.467 6.004 11.59 3.271 11.514 .542 11.514 .39 11.514 .238 11.419 .079 11.365Z" fill="#0033ff"/>
<path transform="matrix(2.7777777,0,0,-2.7777777,361.63389,490.78916)" d="M0 0C-1.175-1.589-2.257-3.06-3.345-4.527-4.618-6.242-6.047-7.864-7.126-9.693-8.121-11.381-9.43-11.582-11.265-11.236-10.518-10.204-9.835-9.246-9.137-8.299-6.804-5.137-4.485-1.964-2.114 1.169-1.609 1.837-1.625 2.281-2.122 2.943-4.459 6.049-6.74 9.196-9.038 12.331-9.232 12.595-9.4 12.877-9.635 13.234-7.937 13.57-6.68 13.466-5.63 11.85-3.937 9.242-1.959 6.821-.009 4.197 .3 4.543 .562 4.796 .777 5.083 2.447 7.302 4.226 9.451 5.728 11.779 6.717 13.312 7.907 13.627 9.758 13.225 7.016 9.491 4.337 5.842 1.575 2.081 4.806-2.308 8.033-6.693 11.283-11.108 9.257-11.716 8.572-11.511 7.435-9.98 5.321-7.134 3.217-4.281 1.106-1.433 .779-.993 .437-.566 0 0" fill="#0033ff"/>
<path transform="matrix(2.7777777,0,0,-2.7777777,667.98416,454.0466)" d="M0 0V-2.158H-3.023C-4.474-2.158-5.927-2.213-7.375-2.139-8.376-2.089-8.689-2.415-8.682-3.432-8.641-9.919-8.661-16.405-8.661-22.892V-24.495H-11.135V-22.92C-11.135-16.477-11.16-10.032-11.112-3.589-11.104-2.494-11.354-2.078-12.522-2.132-14.566-2.226-16.618-2.13-18.665-2.169-19.497-2.185-19.809-1.885-19.785-1.052-19.764-.323-19.69 .163-18.76 .159-12.743 .131-6.726 .143-.709 .135-.503 .135-.297 .059 0 0" fill="#0033ff"/>
<path transform="matrix(2.7777777,0,0,-2.7777777,184.81415,522.0169)" d="M0 0V22.281H-8.428V24.527H11.129V22.312H8.517C6.936 22.312 5.352 22.251 3.775 22.332 2.727 22.386 2.475 21.976 2.479 21.002 2.511 14.55 2.496 8.098 2.495 1.645 2.495 1.137 2.496 .629 2.496 0Z" fill="#0033ff"/>
</g>
<use data-text="&#x0438;" xlink:href="#font_3_21" transform="matrix(115.27777,0,0,-115.27777,160.18917,671.5424)" fill="#d90000"/>
<use data-text="&#x043d;" xlink:href="#font_3_20" transform="matrix(115.27777,0,0,-115.27777,210.33498,671.5424)" fill="#d90000"/>
<use data-text="&#x043d;" xlink:href="#font_3_20" transform="matrix(115.27777,0,0,-115.27777,254.71694,671.5424)" fill="#d90000"/>
<use data-text="&#x043e;" xlink:href="#font_3_19" transform="matrix(115.27777,0,0,-115.27777,298.86833,671.5424)" fill="#d90000"/>
<use data-text="&#x0432;" xlink:href="#font_3_18" transform="matrix(115.27777,0,0,-115.27777,346.36277,671.5424)" fill="#d90000"/>
<use data-text="&#x0430;" xlink:href="#font_3_17" transform="matrix(115.27777,0,0,-115.27777,387.2403,671.5424)" fill="#d90000"/>
<use data-text="&#x0446;" xlink:href="#font_3_16" transform="matrix(115.27777,0,0,-115.27777,438.3775,671.5424)" fill="#d90000"/>
<use data-text="&#x0438;" xlink:href="#font_3_21" transform="matrix(115.27777,0,0,-115.27777,485.61833,671.5424)" fill="#d90000"/>
<use data-text="&#x043e;" xlink:href="#font_3_19" transform="matrix(115.27777,0,0,-115.27777,535.5336,671.5424)" fill="#d90000"/>
<use data-text="&#x043d;" xlink:href="#font_3_20" transform="matrix(115.27777,0,0,-115.27777,582.809,671.5424)" fill="#d90000"/>
<use data-text="&#x043d;" xlink:href="#font_3_20" transform="matrix(115.27777,0,0,-115.27777,627.191,671.5424)" fill="#d90000"/>
<use data-text="&#x044b;" xlink:href="#font_3_15" transform="matrix(115.27777,0,0,-115.27777,671.6767,671.5424)" fill="#d90000"/>
<use data-text="&#x0435;" xlink:href="#font_3_14" transform="matrix(115.27777,0,0,-115.27777,731.52896,671.5424)" fill="#d90000"/>
<use data-text=" " xlink:href="#font_3_1" transform="matrix(115.27777,0,0,-115.27777,766.6771,671.5424)" fill="#d90000"/>
<use data-text="&#x0421;" xlink:href="#font_3_13" transform="matrix(115.27777,0,0,-115.27777,158.9211,799.2702)" fill="#d90000"/>
<use data-text="&#x0435;" xlink:href="#font_3_14" transform="matrix(115.27777,0,0,-115.27777,196.72069,799.2702)" fill="#d90000"/>
<use data-text="&#x0439;" xlink:href="#font_3_12" transform="matrix(115.27777,0,0,-115.27777,231.5807,799.2702)" fill="#d90000"/>
<use data-text="&#x0421;" xlink:href="#font_3_13" transform="matrix(115.27777,0,0,-115.27777,281.46138,799.2702)" fill="#d90000"/>
<use data-text="&#x043c;" xlink:href="#font_3_11" transform="matrix(115.27777,0,0,-115.27777,319.27247,799.2702)" fill="#d90000"/>
<use data-text="&#x0438;" xlink:href="#font_3_21" transform="matrix(115.27777,0,0,-115.27777,374.7211,799.2702)" fill="#d90000"/>
<use data-text="&#x0447;" xlink:href="#font_3_10" transform="matrix(115.27777,0,0,-115.27777,424.7401,799.2702)" fill="#d90000"/>
<use data-text="&#x0435;" xlink:href="#font_3_14" transform="matrix(115.27777,0,0,-115.27777,466.2401,799.2702)" fill="#d90000"/>
<use data-text="&#x0421;" xlink:href="#font_3_13" transform="matrix(115.27777,0,0,-115.27777,500.37388,799.2702)" fill="#d90000"/>
<use data-text="&#x043a;" xlink:href="#font_3_9" transform="matrix(115.27777,0,0,-115.27777,538.30026,799.2702)" fill="#d90000"/>
<use data-text="&#x0438;" xlink:href="#font_3_21" transform="matrix(115.27777,0,0,-115.27777,583.005,799.2702)" fill="#d90000"/>
<use data-text="&#x0435;" xlink:href="#font_3_14" transform="matrix(115.27777,0,0,-115.27777,633.2661,799.2702)" fill="#d90000"/>
<use data-text=" " xlink:href="#font_3_1" transform="matrix(115.27777,0,0,-115.27777,668.4258,799.2702)" fill="#d90000"/>
<use data-text="&#x0413;" xlink:href="#font_3_8" transform="matrix(115.27777,0,0,-115.27777,160.07389,926.998)" fill="#d90000"/>
<use data-text="&#x0435;" xlink:href="#font_3_14" transform="matrix(115.27777,0,0,-115.27777,196.73223,926.998)" fill="#d90000"/>
<use data-text="&#x043e;" xlink:href="#font_3_19" transform="matrix(115.27777,0,0,-115.27777,230.62387,926.998)" fill="#d90000"/>
<use data-text="&#x041b;" xlink:href="#font_3_7" transform="matrix(115.27777,0,0,-115.27777,277.1961,926.998)" fill="#d90000"/>
<use data-text="&#x043e;" xlink:href="#font_3_19" transform="matrix(115.27777,0,0,-115.27777,329.30168,926.998)" fill="#d90000"/>
<use data-text="&#x0413;" xlink:href="#font_3_8" transform="matrix(115.27777,0,0,-115.27777,376.7961,926.998)" fill="#d90000"/>
<use data-text="&#x043e;" xlink:href="#font_3_19" transform="matrix(115.27777,0,0,-115.27777,411.95585,926.998)" fill="#d90000"/>
<use data-text="-" xlink:href="#font_3_2" transform="matrix(115.27777,0,0,-115.27777,458.2975,926.998)" fill="#d90000"/>
<use data-text="&#x0413;" xlink:href="#font_3_8" transform="matrix(115.27777,0,0,-115.27777,487.2207,926.998)" fill="#d90000"/>
<use data-text="&#x0435;" xlink:href="#font_3_14" transform="matrix(115.27777,0,0,-115.27777,523.77529,926.998)" fill="#d90000"/>
<use data-text="&#x043e;" xlink:href="#font_3_19" transform="matrix(115.27777,0,0,-115.27777,557.667,926.998)" fill="#d90000"/>
<use data-text="&#x0424;" xlink:href="#font_3_6" transform="matrix(115.27777,0,0,-115.27777,605.6225,926.998)" fill="#d90000"/>
<use data-text="&#x0438;" xlink:href="#font_3_21" transform="matrix(115.27777,0,0,-115.27777,669.6017,926.998)" fill="#d90000"/>
<use data-text="&#x0417;" xlink:href="#font_3_5" transform="matrix(115.27777,0,0,-115.27777,719.63229,926.998)" fill="#d90000"/>
<use data-text="&#x0438;" xlink:href="#font_3_21" transform="matrix(115.27777,0,0,-115.27777,756.867,926.998)" fill="#d90000"/>
<use data-text="&#x0447;" xlink:href="#font_3_10" transform="matrix(115.27777,0,0,-115.27777,806.89767,926.998)" fill="#d90000"/>
<use data-text="&#x0435;" xlink:href="#font_3_14" transform="matrix(115.27777,0,0,-115.27777,848.3515,926.998)" fill="#d90000"/>
<use data-text="&#x0421;" xlink:href="#font_3_13" transform="matrix(115.27777,0,0,-115.27777,882.51968,926.998)" fill="#d90000"/>
<use data-text="&#x043a;" xlink:href="#font_3_9" transform="matrix(115.27777,0,0,-115.27777,920.44607,926.998)" fill="#d90000"/>
<use data-text="&#x0438;" xlink:href="#font_3_21" transform="matrix(115.27777,0,0,-115.27777,965.15078,926.998)" fill="#d90000"/>
<use data-text="&#x0435;" xlink:href="#font_3_14" transform="matrix(115.27777,0,0,-115.27777,1015.4003,926.998)" fill="#d90000"/>
<use data-text=" " xlink:href="#font_3_1" transform="matrix(115.27777,0,0,-115.27777,1050.5946,926.998)" fill="#d90000"/>
<use data-text="&#x0442;" xlink:href="#font_3_4" transform="matrix(115.27777,0,0,-115.27777,156.50025,1054.7258)" fill="#d90000"/>
<use data-text="&#x0435;" xlink:href="#font_3_14" transform="matrix(115.27777,0,0,-115.27777,200.65163,1054.7258)" fill="#d90000"/>
<use data-text="&#x0445;" xlink:href="#font_3_3" transform="matrix(115.27777,0,0,-115.27777,236.42232,1054.7258)" fill="#d90000"/>
<use data-text="&#x043d;" xlink:href="#font_3_20" transform="matrix(115.27777,0,0,-115.27777,285.3001,1054.7258)" fill="#d90000"/>
<use data-text="&#x043e;" xlink:href="#font_3_19" transform="matrix(115.27777,0,0,-115.27777,329.463,1054.7258)" fill="#d90000"/>
<use data-text="&#x041b;" xlink:href="#font_3_7" transform="matrix(115.27777,0,0,-115.27777,375.9891,1054.7258)" fill="#d90000"/>
<use data-text="&#x043e;" xlink:href="#font_3_19" transform="matrix(115.27777,0,0,-115.27777,428.09465,1054.7258)" fill="#d90000"/>
<use data-text="&#x0413;" xlink:href="#font_3_8" transform="matrix(115.27777,0,0,-115.27777,475.58906,1054.7258)" fill="#d90000"/>
<use data-text="&#x0438;" xlink:href="#font_3_21" transform="matrix(115.27777,0,0,-115.27777,512.13217,1054.7258)" fill="#d90000"/>
<use data-text="&#x0438;" xlink:href="#font_3_21" transform="matrix(115.27777,0,0,-115.27777,562.27798,1054.7258)" fill="#d90000"/>
<path transform="matrix(2.7777777,0,0,-2.7777777,126.45306,133.07138)" stroke-width="3.287" stroke-linecap="butt" stroke-miterlimit="4" stroke-linejoin="miter" fill="none" stroke="#d90000" d="M0 0V-332.787"/>
</svg>
