{
	"asset":{
		"generator":"Khronos glTF Blender I/O v4.5.48",
		"version":"2.0"
	},
	"scene":0,
	"scenes":[
		{
			"name":"Scene",
			"nodes":[
				0,
				1,
				2,
				3
			]
		}
	],
	"nodes":[
		{
			"mesh":0,
			"name":"Cylinder",
			"translation":[
				0,
				18,
				-0.34911274909973145
			]
		},
		{
			"mesh":1,
			"name":"Cylinder.001",
			"translation":[
				0,
				37,
				0
			]
		},
		{
			"mesh":2,
			"name":"Cylinder.002",
			"translation":[
				0,
				44.400001525878906,
				2
			]
		},
		{
			"mesh":3,
			"name":"Torus",
			"translation":[
				0,
				35,
				2
			]
		}
	],
	"materials":[
		{
			"doubleSided":true,
			"name":"Black rubber",
			"normalTexture":{
				"index":0,
				"texCoord":1
			},
			"pbrMetallicRoughness":{
				"baseColorTexture":{
					"index":1,
					"texCoord":1
				},
				"metallicFactor":0,
				"metallicRoughnessTexture":{
					"index":2,
					"texCoord":1
				}
			}
		},
		{
			"doubleSided":true,
			"name":"Editable Brushed  Aluminium",
			"pbrMetallicRoughness":{
				"baseColorFactor":[
					0.34184765815734863,
					0.34184765815734863,
					0.34184765815734863,
					1
				],
				"metallicFactor":0.949999988079071
			}
		}
	],
	"meshes":[
		{
			"name":"Cylinder.003",
			"primitives":[
				{
					"attributes":{
						"POSITION":0,
						"NORMAL":1,
						"TEXCOORD_0":2,
						"TEXCOORD_1":3
					},
					"indices":4,
					"material":0
				}
			]
		},
		{
			"name":"Cylinder.004",
			"primitives":[
				{
					"attributes":{
						"POSITION":5,
						"NORMAL":6,
						"TEXCOORD_0":7,
						"TEXCOORD_1":8
					},
					"indices":4,
					"material":1
				}
			]
		},
		{
			"name":"Cylinder.005",
			"primitives":[
				{
					"attributes":{
						"POSITION":9,
						"NORMAL":10,
						"TEXCOORD_0":11,
						"TEXCOORD_1":12
					},
					"indices":13,
					"material":1
				}
			]
		},
		{
			"name":"Torus",
			"primitives":[
				{
					"attributes":{
						"POSITION":14,
						"NORMAL":15,
						"TEXCOORD_0":16
					},
					"indices":17,
					"material":1
				}
			]
		}
	],
	"textures":[
		{
			"sampler":0,
			"source":0
		},
		{
			"sampler":0,
			"source":1
		},
		{
			"sampler":0,
			"source":2
		}
	],
	"images":[
		{
			"mimeType":"image/jpeg",
			"name":"black rubber_Normal",
			"uri":"black_rubber_Normal.jpg"
		},
		{
			"mimeType":"image/jpeg",
			"name":"black rubber_BaseColor",
			"uri":"black_rubber_BaseColor.jpg"
		},
		{
			"mimeType":"image/png",
			"name":"black rubber_Roughness",
			"uri":"black_rubber_Roughness.png"
		}
	],
	"accessors":[
		{
			"bufferView":0,
			"componentType":5126,
			"count":3000,
			"max":[
				15,
				15.5,
				15
			],
			"min":[
				-15,
				-15.5,
				-15
			],
			"type":"VEC3"
		},
		{
			"bufferView":1,
			"componentType":5126,
			"count":3000,
			"type":"VEC3"
		},
		{
			"bufferView":2,
			"componentType":5126,
			"count":3000,
			"type":"VEC2"
		},
		{
			"bufferView":3,
			"componentType":5126,
			"count":3000,
			"type":"VEC2"
		},
		{
			"bufferView":4,
			"componentType":5123,
			"count":5988,
			"type":"SCALAR"
		},
		{
			"bufferView":5,
			"componentType":5126,
			"count":3000,
			"max":[
				16,
				-1.5,
				16
			],
			"min":[
				-16,
				-3.5,
				-16
			],
			"type":"VEC3"
		},
		{
			"bufferView":6,
			"componentType":5126,
			"count":3000,
			"type":"VEC3"
		},
		{
			"bufferView":7,
			"componentType":5126,
			"count":3000,
			"type":"VEC2"
		},
		{
			"bufferView":8,
			"componentType":5126,
			"count":3000,
			"type":"VEC2"
		},
		{
			"bufferView":9,
			"componentType":5126,
			"count":281288,
			"max":[
				10,
				9,
				10
			],
			"min":[
				-10,
				-9,
				-10
			],
			"type":"VEC3"
		},
		{
			"bufferView":10,
			"componentType":5126,
			"count":281288,
			"type":"VEC3"
		},
		{
			"bufferView":11,
			"componentType":5126,
			"count":281288,
			"type":"VEC2"
		},
		{
			"bufferView":12,
			"componentType":5126,
			"count":281288,
			"type":"VEC2"
		},
		{
			"bufferView":13,
			"componentType":5125,
			"count":432456,
			"type":"SCALAR"
		},
		{
			"bufferView":14,
			"componentType":5126,
			"count":262144,
			"max":[
				11,
				1,
				11
			],
			"min":[
				-11,
				-1,
				-11
			],
			"type":"VEC3"
		},
		{
			"bufferView":15,
			"componentType":5126,
			"count":262144,
			"type":"VEC3"
		},
		{
			"bufferView":16,
			"componentType":5126,
			"count":262144,
			"type":"VEC2"
		},
		{
			"bufferView":17,
			"componentType":5125,
			"count":393216,
			"type":"SCALAR"
		}
	],
	"bufferViews":[
		{
			"buffer":0,
			"byteLength":36000,
			"byteOffset":0,
			"target":34962
		},
		{
			"buffer":0,
			"byteLength":36000,
			"byteOffset":36000,
			"target":34962
		},
		{
			"buffer":0,
			"byteLength":24000,
			"byteOffset":72000,
			"target":34962
		},
		{
			"buffer":0,
			"byteLength":24000,
			"byteOffset":96000,
			"target":34962
		},
		{
			"buffer":0,
			"byteLength":11976,
			"byteOffset":120000,
			"target":34963
		},
		{
			"buffer":0,
			"byteLength":36000,
			"byteOffset":131976,
			"target":34962
		},
		{
			"buffer":0,
			"byteLength":36000,
			"byteOffset":167976,
			"target":34962
		},
		{
			"buffer":0,
			"byteLength":24000,
			"byteOffset":203976,
			"target":34962
		},
		{
			"buffer":0,
			"byteLength":24000,
			"byteOffset":227976,
			"target":34962
		},
		{
			"buffer":0,
			"byteLength":3375456,
			"byteOffset":251976,
			"target":34962
		},
		{
			"buffer":0,
			"byteLength":3375456,
			"byteOffset":3627432,
			"target":34962
		},
		{
			"buffer":0,
			"byteLength":2250304,
			"byteOffset":7002888,
			"target":34962
		},
		{
			"buffer":0,
			"byteLength":2250304,
			"byteOffset":9253192,
			"target":34962
		},
		{
			"buffer":0,
			"byteLength":1729824,
			"byteOffset":11503496,
			"target":34963
		},
		{
			"buffer":0,
			"byteLength":3145728,
			"byteOffset":13233320,
			"target":34962
		},
		{
			"buffer":0,
			"byteLength":3145728,
			"byteOffset":16379048,
			"target":34962
		},
		{
			"buffer":0,
			"byteLength":2097152,
			"byteOffset":19524776,
			"target":34962
		},
		{
			"buffer":0,
			"byteLength":1572864,
			"byteOffset":21621928,
			"target":34963
		}
	],
	"samplers":[
		{
			"magFilter":9729,
			"minFilter":9987
		}
	],
	"buffers":[
		{
			"byteLength":23194792,
			"uri":"gidrophoneTEXTURE.bin"
		}
	]
}
