{
	"asset":{
		"generator":"Khronos glTF Blender I/O v4.5.48",
		"version":"2.0"
	},
	"extensionsUsed":[
		"KHR_materials_clearcoat",
		"KHR_texture_transform"
	],
	"extensionsRequired":[
		"KHR_texture_transform"
	],
	"scene":0,
	"scenes":[
		{
			"name":"Scene",
			"nodes":[
				0,
				1,
				2,
				3,
				4,
				5,
				6,
				7,
				8,
				9,
				10,
				11,
				12,
				13,
				14,
				15,
				16,
				17,
				18
			]
		}
	],
	"nodes":[
		{
			"mesh":0,
			"name":"Cylinder",
			"translation":[
				0,
				560.463134765625,
				0
			]
		},
		{
			"mesh":1,
			"name":"Cylinder.001",
			"translation":[
				0,
				573.2631225585938,
				0
			]
		},
		{
			"mesh":2,
			"name":"Sphere",
			"translation":[
				0,
				580.463134765625,
				0
			]
		},
		{
			"mesh":3,
			"name":"Cylinder.002",
			"translation":[
				0,
				545.463134765625,
				0
			]
		},
		{
			"mesh":4,
			"name":"Cylinder.003",
			"translation":[
				0,
				532.963134765625,
				0
			]
		},
		{
			"mesh":5,
			"name":"Cylinder.004",
			"translation":[
				0,
				523.463134765625,
				0
			]
		},
		{
			"mesh":6,
			"name":"Cylinder.005",
			"translation":[
				0,
				483.96173095703125,
				0
			]
		},
		{
			"mesh":7,
			"name":"Cylinder.006",
			"translation":[
				0,
				434.031982421875,
				0
			]
		},
		{
			"mesh":8,
			"name":"Cylinder.007",
			"translation":[
				0,
				412.5948486328125,
				0
			]
		},
		{
			"mesh":9,
			"name":"Cylinder.008",
			"translation":[
				0,
				406.11895751953125,
				0
			]
		},
		{
			"mesh":10,
			"name":"Cylinder.009",
			"translation":[
				0,
				284.0364685058594,
				0
			]
		},
		{
			"mesh":11,
			"name":"Cylinder.010",
			"translation":[
				0,
				150.57916259765625,
				0
			]
		},
		{
			"mesh":12,
			"name":"Torus.002",
			"translation":[
				0,
				162.4478759765625,
				0
			]
		},
		{
			"mesh":13,
			"name":"Cylinder.011",
			"translation":[
				0,
				132.6358642578125,
				0
			]
		},
		{
			"mesh":14,
			"name":"Cylinder.012",
			"translation":[
				0,
				89.99999237060547,
				0
			]
		},
		{
			"mesh":15,
			"name":"Cylinder.013",
			"translation":[
				0,
				120.99999237060547,
				0
			]
		},
		{
			"mesh":16,
			"name":"Torus.004",
			"translation":[
				0,
				138.6999969482422,
				0
			]
		},
		{
			"mesh":17,
			"name":"Torus.006",
			"translation":[
				0,
				126.69999694824219,
				0
			]
		},
		{
			"mesh":18,
			"name":"Torus.007",
			"translation":[
				0,
				64.4410629272461,
				0
			]
		}
	],
	"materials":[
		{
			"doubleSided":true,
			"extensions":{
				"KHR_materials_clearcoat":{
					"clearcoatFactor":0.25,
					"clearcoatRoughnessFactor":0.19090908765792847
				}
			},
			"name":"Plastic with scratches",
			"normalTexture":{
				"extensions":{
					"KHR_texture_transform":{
						"offset":[
							0,
							-2
						],
						"scale":[
							3,
							3
						]
					}
				},
				"index":0,
				"scale":0.5,
				"texCoord":1
			},
			"pbrMetallicRoughness":{
				"baseColorTexture":{
					"extensions":{
						"KHR_texture_transform":{
							"offset":[
								0,
								-2
							],
							"scale":[
								3,
								3
							]
						}
					},
					"index":1,
					"texCoord":1
				},
				"metallicFactor":0,
				"metallicRoughnessTexture":{
					"extensions":{
						"KHR_texture_transform":{
							"offset":[
								0,
								-2
							],
							"scale":[
								3,
								3
							]
						}
					},
					"index":2,
					"texCoord":1
				}
			}
		},
		{
			"doubleSided":true,
			"name":"Plastic rubber",
			"normalTexture":{
				"index":0,
				"texCoord":1
			},
			"pbrMetallicRoughness":{
				"baseColorTexture":{
					"index":1,
					"texCoord":1
				},
				"metallicFactor":0,
				"roughnessFactor":0.8590909242630005
			}
		},
		{
			"doubleSided":true,
			"name":"Black plastic PL",
			"pbrMetallicRoughness":{
				"metallicRoughnessTexture":{
					"index":2,
					"texCoord":1
				}
			}
		}
	],
	"meshes":[
		{
			"name":"Cylinder.003",
			"primitives":[
				{
					"attributes":{
						"POSITION":0,
						"NORMAL":1,
						"TEXCOORD_0":2,
						"TEXCOORD_1":3
					},
					"indices":4,
					"material":0
				}
			]
		},
		{
			"name":"Cylinder.004",
			"primitives":[
				{
					"attributes":{
						"POSITION":5,
						"NORMAL":6,
						"TEXCOORD_0":7,
						"TEXCOORD_1":8
					},
					"indices":4,
					"material":0
				}
			]
		},
		{
			"name":"Sphere.004",
			"primitives":[
				{
					"attributes":{
						"POSITION":9,
						"NORMAL":10,
						"TEXCOORD_0":11,
						"TEXCOORD_1":12
					},
					"indices":13,
					"material":0
				}
			]
		},
		{
			"name":"Cylinder.005",
			"primitives":[
				{
					"attributes":{
						"POSITION":14,
						"NORMAL":15,
						"TEXCOORD_0":16,
						"TEXCOORD_1":17
					},
					"indices":4,
					"material":0
				}
			]
		},
		{
			"name":"Cylinder.006",
			"primitives":[
				{
					"attributes":{
						"POSITION":18,
						"NORMAL":19,
						"TEXCOORD_0":20,
						"TEXCOORD_1":21
					},
					"indices":4,
					"material":1
				}
			]
		},
		{
			"name":"Cylinder.007",
			"primitives":[
				{
					"attributes":{
						"POSITION":22,
						"NORMAL":23,
						"TEXCOORD_0":24,
						"TEXCOORD_1":25
					},
					"indices":4,
					"material":1
				}
			]
		},
		{
			"name":"Cylinder.008",
			"primitives":[
				{
					"attributes":{
						"POSITION":26,
						"NORMAL":27,
						"TEXCOORD_0":28,
						"TEXCOORD_1":29
					},
					"indices":4,
					"material":1
				}
			]
		},
		{
			"name":"Cylinder.010",
			"primitives":[
				{
					"attributes":{
						"POSITION":30,
						"NORMAL":31,
						"TEXCOORD_0":32,
						"TEXCOORD_1":33
					},
					"indices":4,
					"material":1
				}
			]
		},
		{
			"name":"Cylinder.011",
			"primitives":[
				{
					"attributes":{
						"POSITION":34,
						"NORMAL":35,
						"TEXCOORD_0":36,
						"TEXCOORD_1":37
					},
					"indices":4,
					"material":1
				}
			]
		},
		{
			"name":"Cylinder.012",
			"primitives":[
				{
					"attributes":{
						"POSITION":38,
						"NORMAL":39,
						"TEXCOORD_0":40,
						"TEXCOORD_1":41
					},
					"indices":4,
					"material":1
				}
			]
		},
		{
			"name":"Cylinder.013",
			"primitives":[
				{
					"attributes":{
						"POSITION":42,
						"NORMAL":43,
						"TEXCOORD_0":44,
						"TEXCOORD_1":45
					},
					"indices":4,
					"material":2
				}
			]
		},
		{
			"name":"Cylinder.014",
			"primitives":[
				{
					"attributes":{
						"POSITION":46,
						"NORMAL":47,
						"TEXCOORD_0":48,
						"TEXCOORD_1":49
					},
					"indices":4,
					"material":1
				}
			]
		},
		{
			"name":"Torus.002",
			"primitives":[
				{
					"attributes":{
						"POSITION":50,
						"NORMAL":51,
						"TEXCOORD_0":52,
						"TEXCOORD_1":53
					},
					"indices":54,
					"material":1
				}
			]
		},
		{
			"name":"Cylinder.016",
			"primitives":[
				{
					"attributes":{
						"POSITION":55,
						"NORMAL":56,
						"TEXCOORD_0":57,
						"TEXCOORD_1":58
					},
					"indices":4,
					"material":1
				}
			]
		},
		{
			"name":"Cylinder.020",
			"primitives":[
				{
					"attributes":{
						"POSITION":59,
						"NORMAL":60,
						"TEXCOORD_0":61,
						"TEXCOORD_1":62
					},
					"indices":4,
					"material":1
				}
			]
		},
		{
			"name":"Cylinder.019",
			"primitives":[
				{
					"attributes":{
						"POSITION":63,
						"NORMAL":64,
						"TEXCOORD_0":65,
						"TEXCOORD_1":66
					},
					"indices":4,
					"material":1
				}
			]
		},
		{
			"name":"Torus.004",
			"primitives":[
				{
					"attributes":{
						"POSITION":67,
						"NORMAL":68,
						"TEXCOORD_0":69,
						"TEXCOORD_1":70
					},
					"indices":71,
					"material":1
				}
			]
		},
		{
			"name":"Torus.006",
			"primitives":[
				{
					"attributes":{
						"POSITION":72,
						"NORMAL":73,
						"TEXCOORD_0":74,
						"TEXCOORD_1":75
					},
					"indices":76,
					"material":1
				}
			]
		},
		{
			"name":"Torus.007",
			"primitives":[
				{
					"attributes":{
						"POSITION":77,
						"NORMAL":78,
						"TEXCOORD_0":79,
						"TEXCOORD_1":80
					},
					"indices":81,
					"material":1
				}
			]
		}
	],
	"textures":[
		{
			"sampler":0,
			"source":0
		},
		{
			"sampler":0,
			"source":1
		},
		{
			"sampler":0,
			"source":2
		}
	],
	"images":[
		{
			"mimeType":"image/jpeg",
			"name":"Normal",
			"uri":"black_rubber_Normal.jpg"
		},
		{
			"mimeType":"image/jpeg",
			"name":"BaseColor",
			"uri":"black_rubber_BaseColor.jpg"
		},
		{
			"mimeType":"image/png",
			"name":"Roughness",
			"uri":"black_rubber_Roughness.png"
		}
	],
	"accessors":[
		{
			"bufferView":0,
			"componentType":5126,
			"count":3000,
			"max":[
				19,
				5,
				19
			],
			"min":[
				-19,
				-5,
				-19
			],
			"type":"VEC3"
		},
		{
			"bufferView":1,
			"componentType":5126,
			"count":3000,
			"type":"VEC3"
		},
		{
			"bufferView":2,
			"componentType":5126,
			"count":3000,
			"type":"VEC2"
		},
		{
			"bufferView":3,
			"componentType":5126,
			"count":3000,
			"type":"VEC2"
		},
		{
			"bufferView":4,
			"componentType":5123,
			"count":5988,
			"type":"SCALAR"
		},
		{
			"bufferView":5,
			"componentType":5126,
			"count":3000,
			"max":[
				15.75,
				7.875,
				15.75
			],
			"min":[
				-15.75,
				-7.875,
				-15.75
			],
			"type":"VEC3"
		},
		{
			"bufferView":6,
			"componentType":5126,
			"count":3000,
			"type":"VEC3"
		},
		{
			"bufferView":7,
			"componentType":5126,
			"count":3000,
			"type":"VEC2"
		},
		{
			"bufferView":8,
			"componentType":5126,
			"count":3000,
			"type":"VEC2"
		},
		{
			"bufferView":9,
			"componentType":5126,
			"count":198951,
			"max":[
				15.749963760375977,
				15.750000953674316,
				15.749926567077637
			],
			"min":[
				-15.74988842010498,
				-15.750000953674316,
				-15.750000953674316
			],
			"type":"VEC3"
		},
		{
			"bufferView":10,
			"componentType":5126,
			"count":198951,
			"type":"VEC3"
		},
		{
			"bufferView":11,
			"componentType":5126,
			"count":198951,
			"type":"VEC2"
		},
		{
			"bufferView":12,
			"componentType":5126,
			"count":198951,
			"type":"VEC2"
		},
		{
			"bufferView":13,
			"componentType":5125,
			"count":297000,
			"type":"SCALAR"
		},
		{
			"bufferView":14,
			"componentType":5126,
			"count":3000,
			"max":[
				15.75,
				10,
				15.75
			],
			"min":[
				-15.75,
				-10,
				-15.75
			],
			"type":"VEC3"
		},
		{
			"bufferView":15,
			"componentType":5126,
			"count":3000,
			"type":"VEC3"
		},
		{
			"bufferView":16,
			"componentType":5126,
			"count":3000,
			"type":"VEC2"
		},
		{
			"bufferView":17,
			"componentType":5126,
			"count":3000,
			"type":"VEC2"
		},
		{
			"bufferView":18,
			"componentType":5126,
			"count":3000,
			"max":[
				17,
				2.5,
				17
			],
			"min":[
				-17,
				-2.5,
				-17
			],
			"type":"VEC3"
		},
		{
			"bufferView":19,
			"componentType":5126,
			"count":3000,
			"type":"VEC3"
		},
		{
			"bufferView":20,
			"componentType":5126,
			"count":3000,
			"type":"VEC2"
		},
		{
			"bufferView":21,
			"componentType":5126,
			"count":3000,
			"type":"VEC2"
		},
		{
			"bufferView":22,
			"componentType":5126,
			"count":3000,
			"max":[
				17,
				7,
				17
			],
			"min":[
				-17,
				-7,
				-17
			],
			"type":"VEC3"
		},
		{
			"bufferView":23,
			"componentType":5126,
			"count":3000,
			"type":"VEC3"
		},
		{
			"bufferView":24,
			"componentType":5126,
			"count":3000,
			"type":"VEC2"
		},
		{
			"bufferView":25,
			"componentType":5126,
			"count":3000,
			"type":"VEC2"
		},
		{
			"bufferView":26,
			"componentType":5126,
			"count":3000,
			"max":[
				17,
				32.5,
				17
			],
			"min":[
				-17,
				-32.5,
				-17
			],
			"type":"VEC3"
		},
		{
			"bufferView":27,
			"componentType":5126,
			"count":3000,
			"type":"VEC3"
		},
		{
			"bufferView":28,
			"componentType":5126,
			"count":3000,
			"type":"VEC2"
		},
		{
			"bufferView":29,
			"componentType":5126,
			"count":3000,
			"type":"VEC2"
		},
		{
			"bufferView":30,
			"componentType":5126,
			"count":3000,
			"max":[
				9.97890567779541,
				17.5,
				9.97890567779541
			],
			"min":[
				-9.97890567779541,
				-17.500015258789062,
				-9.97890567779541
			],
			"type":"VEC3"
		},
		{
			"bufferView":31,
			"componentType":5126,
			"count":3000,
			"type":"VEC3"
		},
		{
			"bufferView":32,
			"componentType":5126,
			"count":3000,
			"type":"VEC2"
		},
		{
			"bufferView":33,
			"componentType":5126,
			"count":3000,
			"type":"VEC2"
		},
		{
			"bufferView":34,
			"componentType":5126,
			"count":3000,
			"max":[
				10,
				4,
				10
			],
			"min":[
				-10,
				-4,
				-10
			],
			"type":"VEC3"
		},
		{
			"bufferView":35,
			"componentType":5126,
			"count":3000,
			"type":"VEC3"
		},
		{
			"bufferView":36,
			"componentType":5126,
			"count":3000,
			"type":"VEC2"
		},
		{
			"bufferView":37,
			"componentType":5126,
			"count":3000,
			"type":"VEC2"
		},
		{
			"bufferView":38,
			"componentType":5126,
			"count":3000,
			"max":[
				10,
				2.5,
				10
			],
			"min":[
				-10,
				-2.4999582767486572,
				-10
			],
			"type":"VEC3"
		},
		{
			"bufferView":39,
			"componentType":5126,
			"count":3000,
			"type":"VEC3"
		},
		{
			"bufferView":40,
			"componentType":5126,
			"count":3000,
			"type":"VEC2"
		},
		{
			"bufferView":41,
			"componentType":5126,
			"count":3000,
			"type":"VEC2"
		},
		{
			"bufferView":42,
			"componentType":5126,
			"count":3000,
			"max":[
				6.25,
				120,
				6.25
			],
			"min":[
				-6.25,
				-120,
				-6.25
			],
			"type":"VEC3"
		},
		{
			"bufferView":43,
			"componentType":5126,
			"count":3000,
			"type":"VEC3"
		},
		{
			"bufferView":44,
			"componentType":5126,
			"count":3000,
			"type":"VEC2"
		},
		{
			"bufferView":45,
			"componentType":5126,
			"count":3000,
			"type":"VEC2"
		},
		{
			"bufferView":46,
			"componentType":5126,
			"count":3000,
			"max":[
				10.967487335205078,
				12,
				10.967487335205078
			],
			"min":[
				-10.967487335205078,
				-12.000083923339844,
				-10.967487335205078
			],
			"type":"VEC3"
		},
		{
			"bufferView":47,
			"componentType":5126,
			"count":3000,
			"type":"VEC3"
		},
		{
			"bufferView":48,
			"componentType":5126,
			"count":3000,
			"type":"VEC2"
		},
		{
			"bufferView":49,
			"componentType":5126,
			"count":3000,
			"type":"VEC2"
		},
		{
			"bufferView":50,
			"componentType":5126,
			"count":262144,
			"max":[
				8,
				1.75,
				8
			],
			"min":[
				-8,
				-1.75,
				-8
			],
			"type":"VEC3"
		},
		{
			"bufferView":51,
			"componentType":5126,
			"count":262144,
			"type":"VEC3"
		},
		{
			"bufferView":52,
			"componentType":5126,
			"count":262144,
			"type":"VEC2"
		},
		{
			"bufferView":53,
			"componentType":5126,
			"count":262144,
			"type":"VEC2"
		},
		{
			"bufferView":54,
			"componentType":5125,
			"count":393216,
			"type":"SCALAR"
		},
		{
			"bufferView":55,
			"componentType":5126,
			"count":3000,
			"max":[
				12,
				6,
				12
			],
			"min":[
				-12,
				-6,
				-12
			],
			"type":"VEC3"
		},
		{
			"bufferView":56,
			"componentType":5126,
			"count":3000,
			"type":"VEC3"
		},
		{
			"bufferView":57,
			"componentType":5126,
			"count":3000,
			"type":"VEC2"
		},
		{
			"bufferView":58,
			"componentType":5126,
			"count":3000,
			"type":"VEC2"
		},
		{
			"bufferView":59,
			"componentType":5126,
			"count":3000,
			"max":[
				14.5,
				25.5,
				14.5
			],
			"min":[
				-14.5,
				-25.5,
				-14.5
			],
			"type":"VEC3"
		},
		{
			"bufferView":60,
			"componentType":5126,
			"count":3000,
			"type":"VEC3"
		},
		{
			"bufferView":61,
			"componentType":5126,
			"count":3000,
			"type":"VEC2"
		},
		{
			"bufferView":62,
			"componentType":5126,
			"count":3000,
			"type":"VEC2"
		},
		{
			"bufferView":63,
			"componentType":5126,
			"count":3000,
			"max":[
				12,
				5.5,
				12
			],
			"min":[
				-12,
				-5.5,
				-12
			],
			"type":"VEC3"
		},
		{
			"bufferView":64,
			"componentType":5126,
			"count":3000,
			"type":"VEC3"
		},
		{
			"bufferView":65,
			"componentType":5126,
			"count":3000,
			"type":"VEC2"
		},
		{
			"bufferView":66,
			"componentType":5126,
			"count":3000,
			"type":"VEC2"
		},
		{
			"bufferView":67,
			"componentType":5126,
			"count":262144,
			"max":[
				12,
				1,
				12
			],
			"min":[
				-12,
				-1,
				-12
			],
			"type":"VEC3"
		},
		{
			"bufferView":68,
			"componentType":5126,
			"count":262144,
			"type":"VEC3"
		},
		{
			"bufferView":69,
			"componentType":5126,
			"count":262144,
			"type":"VEC2"
		},
		{
			"bufferView":70,
			"componentType":5126,
			"count":262144,
			"type":"VEC2"
		},
		{
			"bufferView":71,
			"componentType":5125,
			"count":393216,
			"type":"SCALAR"
		},
		{
			"bufferView":72,
			"componentType":5126,
			"count":262144,
			"max":[
				13,
				1,
				13
			],
			"min":[
				-13,
				-1,
				-13
			],
			"type":"VEC3"
		},
		{
			"bufferView":73,
			"componentType":5126,
			"count":262144,
			"type":"VEC3"
		},
		{
			"bufferView":74,
			"componentType":5126,
			"count":262144,
			"type":"VEC2"
		},
		{
			"bufferView":75,
			"componentType":5126,
			"count":262144,
			"type":"VEC2"
		},
		{
			"bufferView":76,
			"componentType":5125,
			"count":393216,
			"type":"SCALAR"
		},
		{
			"bufferView":77,
			"componentType":5126,
			"count":210482,
			"max":[
				14.25,
				0.5,
				14.25
			],
			"min":[
				-14.25,
				-0.5,
				-14.25
			],
			"type":"VEC3"
		},
		{
			"bufferView":78,
			"componentType":5126,
			"count":210482,
			"type":"VEC3"
		},
		{
			"bufferView":79,
			"componentType":5126,
			"count":210482,
			"type":"VEC2"
		},
		{
			"bufferView":80,
			"componentType":5126,
			"count":210482,
			"type":"VEC2"
		},
		{
			"bufferView":81,
			"componentType":5125,
			"count":327552,
			"type":"SCALAR"
		}
	],
	"bufferViews":[
		{
			"buffer":0,
			"byteLength":36000,
			"byteOffset":0,
			"target":34962
		},
		{
			"buffer":0,
			"byteLength":36000,
			"byteOffset":36000,
			"target":34962
		},
		{
			"buffer":0,
			"byteLength":24000,
			"byteOffset":72000,
			"target":34962
		},
		{
			"buffer":0,
			"byteLength":24000,
			"byteOffset":96000,
			"target":34962
		},
		{
			"buffer":0,
			"byteLength":11976,
			"byteOffset":120000,
			"target":34963
		},
		{
			"buffer":0,
			"byteLength":36000,
			"byteOffset":131976,
			"target":34962
		},
		{
			"buffer":0,
			"byteLength":36000,
			"byteOffset":167976,
			"target":34962
		},
		{
			"buffer":0,
			"byteLength":24000,
			"byteOffset":203976,
			"target":34962
		},
		{
			"buffer":0,
			"byteLength":24000,
			"byteOffset":227976,
			"target":34962
		},
		{
			"buffer":0,
			"byteLength":2387412,
			"byteOffset":251976,
			"target":34962
		},
		{
			"buffer":0,
			"byteLength":2387412,
			"byteOffset":2639388,
			"target":34962
		},
		{
			"buffer":0,
			"byteLength":1591608,
			"byteOffset":5026800,
			"target":34962
		},
		{
			"buffer":0,
			"byteLength":1591608,
			"byteOffset":6618408,
			"target":34962
		},
		{
			"buffer":0,
			"byteLength":1188000,
			"byteOffset":8210016,
			"target":34963
		},
		{
			"buffer":0,
			"byteLength":36000,
			"byteOffset":9398016,
			"target":34962
		},
		{
			"buffer":0,
			"byteLength":36000,
			"byteOffset":9434016,
			"target":34962
		},
		{
			"buffer":0,
			"byteLength":24000,
			"byteOffset":9470016,
			"target":34962
		},
		{
			"buffer":0,
			"byteLength":24000,
			"byteOffset":9494016,
			"target":34962
		},
		{
			"buffer":0,
			"byteLength":36000,
			"byteOffset":9518016,
			"target":34962
		},
		{
			"buffer":0,
			"byteLength":36000,
			"byteOffset":9554016,
			"target":34962
		},
		{
			"buffer":0,
			"byteLength":24000,
			"byteOffset":9590016,
			"target":34962
		},
		{
			"buffer":0,
			"byteLength":24000,
			"byteOffset":9614016,
			"target":34962
		},
		{
			"buffer":0,
			"byteLength":36000,
			"byteOffset":9638016,
			"target":34962
		},
		{
			"buffer":0,
			"byteLength":36000,
			"byteOffset":9674016,
			"target":34962
		},
		{
			"buffer":0,
			"byteLength":24000,
			"byteOffset":9710016,
			"target":34962
		},
		{
			"buffer":0,
			"byteLength":24000,
			"byteOffset":9734016,
			"target":34962
		},
		{
			"buffer":0,
			"byteLength":36000,
			"byteOffset":9758016,
			"target":34962
		},
		{
			"buffer":0,
			"byteLength":36000,
			"byteOffset":9794016,
			"target":34962
		},
		{
			"buffer":0,
			"byteLength":24000,
			"byteOffset":9830016,
			"target":34962
		},
		{
			"buffer":0,
			"byteLength":24000,
			"byteOffset":9854016,
			"target":34962
		},
		{
			"buffer":0,
			"byteLength":36000,
			"byteOffset":9878016,
			"target":34962
		},
		{
			"buffer":0,
			"byteLength":36000,
			"byteOffset":9914016,
			"target":34962
		},
		{
			"buffer":0,
			"byteLength":24000,
			"byteOffset":9950016,
			"target":34962
		},
		{
			"buffer":0,
			"byteLength":24000,
			"byteOffset":9974016,
			"target":34962
		},
		{
			"buffer":0,
			"byteLength":36000,
			"byteOffset":9998016,
			"target":34962
		},
		{
			"buffer":0,
			"byteLength":36000,
			"byteOffset":10034016,
			"target":34962
		},
		{
			"buffer":0,
			"byteLength":24000,
			"byteOffset":10070016,
			"target":34962
		},
		{
			"buffer":0,
			"byteLength":24000,
			"byteOffset":10094016,
			"target":34962
		},
		{
			"buffer":0,
			"byteLength":36000,
			"byteOffset":10118016,
			"target":34962
		},
		{
			"buffer":0,
			"byteLength":36000,
			"byteOffset":10154016,
			"target":34962
		},
		{
			"buffer":0,
			"byteLength":24000,
			"byteOffset":10190016,
			"target":34962
		},
		{
			"buffer":0,
			"byteLength":24000,
			"byteOffset":10214016,
			"target":34962
		},
		{
			"buffer":0,
			"byteLength":36000,
			"byteOffset":10238016,
			"target":34962
		},
		{
			"buffer":0,
			"byteLength":36000,
			"byteOffset":10274016,
			"target":34962
		},
		{
			"buffer":0,
			"byteLength":24000,
			"byteOffset":10310016,
			"target":34962
		},
		{
			"buffer":0,
			"byteLength":24000,
			"byteOffset":10334016,
			"target":34962
		},
		{
			"buffer":0,
			"byteLength":36000,
			"byteOffset":10358016,
			"target":34962
		},
		{
			"buffer":0,
			"byteLength":36000,
			"byteOffset":10394016,
			"target":34962
		},
		{
			"buffer":0,
			"byteLength":24000,
			"byteOffset":10430016,
			"target":34962
		},
		{
			"buffer":0,
			"byteLength":24000,
			"byteOffset":10454016,
			"target":34962
		},
		{
			"buffer":0,
			"byteLength":3145728,
			"byteOffset":10478016,
			"target":34962
		},
		{
			"buffer":0,
			"byteLength":3145728,
			"byteOffset":13623744,
			"target":34962
		},
		{
			"buffer":0,
			"byteLength":2097152,
			"byteOffset":16769472,
			"target":34962
		},
		{
			"buffer":0,
			"byteLength":2097152,
			"byteOffset":18866624,
			"target":34962
		},
		{
			"buffer":0,
			"byteLength":1572864,
			"byteOffset":20963776,
			"target":34963
		},
		{
			"buffer":0,
			"byteLength":36000,
			"byteOffset":22536640,
			"target":34962
		},
		{
			"buffer":0,
			"byteLength":36000,
			"byteOffset":22572640,
			"target":34962
		},
		{
			"buffer":0,
			"byteLength":24000,
			"byteOffset":22608640,
			"target":34962
		},
		{
			"buffer":0,
			"byteLength":24000,
			"byteOffset":22632640,
			"target":34962
		},
		{
			"buffer":0,
			"byteLength":36000,
			"byteOffset":22656640,
			"target":34962
		},
		{
			"buffer":0,
			"byteLength":36000,
			"byteOffset":22692640,
			"target":34962
		},
		{
			"buffer":0,
			"byteLength":24000,
			"byteOffset":22728640,
			"target":34962
		},
		{
			"buffer":0,
			"byteLength":24000,
			"byteOffset":22752640,
			"target":34962
		},
		{
			"buffer":0,
			"byteLength":36000,
			"byteOffset":22776640,
			"target":34962
		},
		{
			"buffer":0,
			"byteLength":36000,
			"byteOffset":22812640,
			"target":34962
		},
		{
			"buffer":0,
			"byteLength":24000,
			"byteOffset":22848640,
			"target":34962
		},
		{
			"buffer":0,
			"byteLength":24000,
			"byteOffset":22872640,
			"target":34962
		},
		{
			"buffer":0,
			"byteLength":3145728,
			"byteOffset":22896640,
			"target":34962
		},
		{
			"buffer":0,
			"byteLength":3145728,
			"byteOffset":26042368,
			"target":34962
		},
		{
			"buffer":0,
			"byteLength":2097152,
			"byteOffset":29188096,
			"target":34962
		},
		{
			"buffer":0,
			"byteLength":2097152,
			"byteOffset":31285248,
			"target":34962
		},
		{
			"buffer":0,
			"byteLength":1572864,
			"byteOffset":33382400,
			"target":34963
		},
		{
			"buffer":0,
			"byteLength":3145728,
			"byteOffset":34955264,
			"target":34962
		},
		{
			"buffer":0,
			"byteLength":3145728,
			"byteOffset":38100992,
			"target":34962
		},
		{
			"buffer":0,
			"byteLength":2097152,
			"byteOffset":41246720,
			"target":34962
		},
		{
			"buffer":0,
			"byteLength":2097152,
			"byteOffset":43343872,
			"target":34962
		},
		{
			"buffer":0,
			"byteLength":1572864,
			"byteOffset":45441024,
			"target":34963
		},
		{
			"buffer":0,
			"byteLength":2525784,
			"byteOffset":47013888,
			"target":34962
		},
		{
			"buffer":0,
			"byteLength":2525784,
			"byteOffset":49539672,
			"target":34962
		},
		{
			"buffer":0,
			"byteLength":1683856,
			"byteOffset":52065456,
			"target":34962
		},
		{
			"buffer":0,
			"byteLength":1683856,
			"byteOffset":53749312,
			"target":34962
		},
		{
			"buffer":0,
			"byteLength":1310208,
			"byteOffset":55433168,
			"target":34963
		}
	],
	"samplers":[
		{
			"magFilter":9729,
			"minFilter":9987
		},
		{
			"magFilter":9729,
			"minFilter":9987,
			"wrapS":33071,
			"wrapT":33071
		}
	],
	"buffers":[
		{
			"byteLength":56743376,
			"uri":"pneumo_hydrophone.bin"
		}
	]
}
